<svg width="168" height="38" fill="none" xmlns="http://www.w3.org/2000/svg"><path d="M19.98 0c.586.346 1.151.702 1.717 1.077a36.81 36.81 0 011.628 1.137 37.284 37.284 0 00-7.91 5.634 30.764 30.764 0 014.545 3.302 31.762 31.762 0 017.92-5.051c.448.445.894.9 1.321 1.364.427.464.844.929 1.24 1.413l-.357.149a28.183 28.183 0 00-9.161 6.098 28.05 28.05 0 00-6.124 9.124 28.052 28.052 0 00-2.144 10.774h.01v1.789H9.082v-1.79h.01c0-4.2.834-8.322 2.412-12.128A31.541 31.541 0 0117.4 13.65a31.145 31.145 0 00-1.688-1.334 29.19 29.19 0 00-2.858-1.838 36.944 36.944 0 00-9.27 24.533h.009v1.78H0v-1.78h.01a40.562 40.562 0 013.097-15.588A40.566 40.566 0 0111.97 6.198 40.543 40.543 0 0119.98 0z" fill="#FF6712"/><path d="M39.782 31.393a40.264 40.264 0 00-2.84-11.693 40.58 40.58 0 00-5.33-9.301l-.485.187c-.11.04-.229.09-.338.139a25.37 25.37 0 00-2.511 1.196 36.995 36.995 0 015.34 9.123 36.472 36.472 0 012.56 10.35h3.604z" fill="#FF6712"/><path d="M14.511 36.8h25.45c.03-.593.039-1.186.039-1.78 0-.592-.01-1.195-.04-1.788H30.8a31.241 31.241 0 00-1.866-9.064 31.547 31.547 0 00-5.201-9.124c-.516.445-1.012.9-1.499 1.384-.367.366-.714.741-1.062 1.117a27.916 27.916 0 014.397 7.838 27.88 27.88 0 011.648 7.859H12.5c-.03.385-.04.77-.05 1.156V36.8h2.061zm7.553-35.485s5.053 3.657 6.968 5.95L26.7 8.955s-4.367-4.784-6.8-5.723" fill="#FF6712"/><path d="M39.782 31.393s.238 1.77.178 2.046c-.07.277-3.781.08-3.781.08s.099-2.314-.12-3.243" fill="#FF6712"/><path d="M68.906 18.342h-5.244v1.748c-1.292-1.52-3.268-2.356-5.206-2.356-5.358 0-8.512 4.902-8.512 9.842 0 5.054 3.116 10.032 8.588 10.032 1.938 0 3.914-.836 5.054-2.318h.076V37h5.244V18.342zm-9.158 14.554c-2.736 0-4.408-2.736-4.408-5.244 0-2.508 1.672-5.206 4.408-5.206 2.736 0 4.446 2.698 4.446 5.206 0 2.508-1.71 5.244-4.446 5.244zM76.58 18.342h-5.32V37h5.32v-9.234c0-2.242.038-5.776 3.192-5.776 3.002 0 2.888 2.888 2.888 5.13V37h5.32V25.6c0-4.332-1.444-7.866-6.46-7.866-1.9 0-3.762.646-4.864 2.318h-.076v-1.71zM95.602 9.5h-5.32V37h5.32v-7.942h.076L101.796 37h6.992l-8.474-10.45 7.866-8.208h-6.916l-5.586 6.84h-.076V9.5z" fill="#232340"/><path d="M117.296 17.734c-5.814 0-9.804 4.142-9.804 9.956 0 5.776 3.952 9.918 9.804 9.918s9.804-4.142 9.804-9.918c0-5.814-3.99-9.956-9.804-9.956zm0 4.712c2.736 0 4.408 2.66 4.408 5.244 0 2.508-1.672 5.206-4.408 5.206-2.736 0-4.408-2.698-4.408-5.206 0-2.584 1.672-5.244 4.408-5.244zm16.126-4.104h-5.32V37h5.32v-8.398c0-2.888.38-6.156 4.066-6.156.798 0 1.558.228 2.204.684l.646-4.94c-.684-.266-1.444-.456-2.204-.456-1.976 0-3.572.912-4.636 2.546h-.076v-1.938zm24.765 0h-5.244v1.748c-1.292-1.52-3.268-2.356-5.206-2.356-5.358 0-8.512 4.902-8.512 9.842 0 5.054 3.116 10.032 8.588 10.032 1.938 0 3.914-.836 5.054-2.318h.076V37h5.244V18.342zm-9.158 14.554c-2.736 0-4.408-2.736-4.408-5.244 0-2.508 1.672-5.206 4.408-5.206 2.736 0 4.446 2.698 4.446 5.206 0 2.508-1.71 5.244-4.446 5.244z" fill="#232340"/><circle cx="164.5" cy="33.5" r="3.5" fill="#FF6712"/></svg>